<svg xmlns="http://www.w3.org/2000/svg" viewBox="0 0 200 200" role="img" aria-label="Botella">
  <rect width="200" height="200" fill="#F5F2EB"/>
  <rect x="90" y="36" width="20" height="16" rx="3" fill="#0A130D"/>
  <path d="M88 52 h24 v14 q14 6 14 22 v44 q0 10-10 10 H84 q-10 0-10-10 V88 q0-16 14-22 Z" fill="#cfe8d2"/>
  <path d="M84 100 h32 v40 q0 10-10 10 H94 q-10 0-10-10 Z" fill="#5EBC66" opacity="0.85"/>
  <rect x="86" y="104" width="28" height="30" rx="5" fill="#F5F2EB"/>
  <text x="100" y="124" font-family="EB Garamond, serif" font-size="13" fill="#0A130D" text-anchor="middle">Aceite</text>
  <circle cx="150" cy="152" r="15" fill="#BBE85B"/>
  <path d="M143 152c0-6 5-10 10-10 0 6-4 10-10 10z" fill="#5EBC66"/>
</svg>
